<?xml version="1.0" encoding="UTF-8" standalone="no"?>
<svg
   version="1.1"
   id="Layer_1"
   x="0px"
   y="0px"
   viewBox="0 0 106.51 122.88"
   style="enable-background:new 0 0 106.51 122.88"
   xml:space="preserve"
   sodipodi:docname="human-male-head-icon.svg"
   inkscape:version="1.4 (86a8ad7, 2024-10-11)"
   xmlns:inkscape="http://www.inkscape.org/namespaces/inkscape"
   xmlns:sodipodi="http://sodipodi.sourceforge.net/DTD/sodipodi-0.dtd"
   xmlns="http://www.w3.org/2000/svg"
   xmlns:svg="http://www.w3.org/2000/svg"><defs
     id="defs1" /><sodipodi:namedview
     id="namedview1"
     pagecolor="#ffffff"
     bordercolor="#666666"
     borderopacity="1.0"
     inkscape:showpageshadow="2"
     inkscape:pageopacity="0.0"
     inkscape:pagecheckerboard="0"
     inkscape:deskcolor="#d1d1d1"
     inkscape:zoom="14.59961"
     inkscape:cx="53.254848"
     inkscape:cy="61.439999"
     inkscape:window-width="3840"
     inkscape:window-height="2054"
     inkscape:window-x="-11"
     inkscape:window-y="-11"
     inkscape:window-maximized="1"
     inkscape:current-layer="Layer_1" /><path
     d="m 58.04,57.83 c 0.72,0.39 0.98,1.29 0.59,2 -0.39,0.72 -1.29,0.98 -2,0.59 -5.05,-2.76 -9.14,-6.05 -11.38,-10.6 -2.05,-4.16 -2.51,-9.28 -0.71,-15.86 -3.23,0.34 -6.97,1.48 -10.82,2.65 -6.87,2.09 -14.03,4.27 -19.99,2.52 -0.69,1.36 -1.21,2.83 -1.59,4.39 -0.49,2.02 -0.74,4.19 -0.81,6.47 -0.06,1.97 -0.01,3.32 0.03,4.37 0.12,3.1 0.16,3.88 -2.49,9.29 l -4.66,9.52 c -0.03,0.08 -0.07,0.15 -0.12,0.22 -0.78,1.19 -1.13,2.29 -1.15,3.21 -0.01,0.53 0.09,0.99 0.28,1.37 0.16,0.33 0.39,0.6 0.68,0.8 0.02,0.01 0.04,0.03 0.06,0.04 0.35,0.23 0.79,0.37 1.28,0.39 0.04,0 0.08,0 0.12,0 l 5.45,0.32 c 0.15,-0.06 0.32,-0.09 0.5,-0.1 0.05,0 0.1,0 0.15,0 v 0 l 4.95,0.42 c 0.81,0.07 1.42,0.78 1.35,1.6 -0.07,0.81 -0.78,1.42 -1.6,1.35 l -0.08,-0.01 -3.24,-0.19 0.01,0.81 c 0.03,2.56 0.07,5.09 0.29,7.65 1.41,0.69 2.77,1.11 4.08,1.24 1.47,0.15 2.9,-0.07 4.29,-0.68 0.75,-0.33 1.62,0.01 1.95,0.76 0.33,0.75 -0.01,1.62 -0.76,1.95 -1.86,0.82 -3.79,1.11 -5.77,0.92 -1.17,-0.12 -2.35,-0.41 -3.55,-0.86 0.06,0.62 0.13,1.23 0.21,1.85 0.18,1.37 0.43,2.77 0.74,4.19 0.09,0.39 0.01,0.78 -0.19,1.1 -1.09,2.18 -1.63,4.02 -1.73,5.54 -0.11,1.65 0.35,2.9 1.23,3.8 0.96,0.97 2.44,1.61 4.3,1.96 2.89,0.54 6.58,0.38 10.58,-0.34 3.8,-0.68 8.06,-1.78 11.99,-3.3 3.21,-1.24 6.18,-2.77 8.45,-4.59 2.28,-1.82 3.31,-4.75 4.19,-7.25 0.17,-0.49 0.34,-0.96 0.43,-1.2 l 0.25,-0.68 c 1.06,-2.92 2.91,-8 5.25,-9.8 0.64,-0.5 1.57,-0.38 2.07,0.27 0.5,0.65 0.38,1.57 -0.27,2.07 -1.66,1.28 -3.32,5.84 -4.28,8.47 -0.18,0.49 -0.17,0.47 -0.25,0.69 -0.19,0.51 -0.3,0.83 -0.42,1.16 -1.01,2.87 -2.19,6.24 -5.13,8.59 -2.51,2.01 -5.75,3.68 -9.23,5.03 -0.88,0.34 -1.78,0.66 -2.69,0.96 0.05,1.31 0.01,2.61 -0.12,3.92 -0.16,1.69 -0.47,3.34 -0.9,4.97 -0.21,0.79 -1.02,1.26 -1.81,1.05 -0.79,-0.21 -1.26,-1.02 -1.05,-1.81 0.4,-1.5 0.68,-2.99 0.82,-4.49 0.09,-0.9 0.13,-1.82 0.12,-2.74 -2.36,0.66 -4.71,1.19 -6.92,1.59 -4.35,0.78 -8.4,0.95 -11.65,0.34 -2.44,-0.46 -4.45,-1.37 -5.86,-2.79 -1.48,-1.5 -2.24,-3.5 -2.07,-6.06 0.12,-1.81 0.71,-3.9 1.87,-6.32 -0.27,-1.27 -0.49,-2.59 -0.67,-3.95 -0.2,-1.5 -0.33,-3.02 -0.38,-4.56 v 0 c 0,-0.02 0,-0.04 0,-0.06 C 10.24,91.92 10.23,91.85 10.23,91.78 9.96,88.96 9.93,86.22 9.89,83.44 L 9.9,82.43 5.2,82.15 H 5.16 C 4.09,82.11 3.14,81.81 2.35,81.29 2.32,81.27 2.28,81.25 2.25,81.22 1.54,80.73 0.97,80.07 0.58,79.28 0.19,78.48 -0.02,77.56 0,76.54 0.03,75.11 0.52,73.5 1.58,71.85 l 4.64,-9.49 c 2.32,-4.73 2.29,-5.37 2.19,-7.88 -0.04,-1.09 -0.1,-2.49 -0.03,-4.57 0.08,-2.48 0.36,-4.85 0.89,-7.07 0.41,-1.7 0.97,-3.31 1.71,-4.82 l -8.8,-3.84 c -0.75,-0.33 -1.09,-1.2 -0.76,-1.94 0.04,-0.1 0.1,-0.2 0.16,-0.28 v 0 C 21.61,4.66 44.2,-2.86 63.3,0.91 c 11.15,2.2 21.08,8.26 28.6,16.48 7.51,8.22 12.63,18.61 14.14,29.49 2.49,17.88 -4.7,37.03 -26.82,50 -0.25,0.15 -0.53,0.21 -0.8,0.2 0,2.88 0.17,5.67 0.5,8.37 0.63,5.13 1.83,9.93 3.53,14.45 0.29,0.76 -0.1,1.61 -0.86,1.9 -0.76,0.29 -1.61,-0.1 -1.9,-0.86 -1.79,-4.75 -3.05,-9.78 -3.7,-15.13 -0.65,-5.34 -0.7,-11.01 -0.08,-17.05 0.08,-0.81 0.81,-1.4 1.62,-1.32 0.81,0.08 1.4,0.81 1.32,1.62 -0.17,1.63 -0.29,3.24 -0.35,4.82 C 98.81,81.63 105.43,63.86 103.12,47.28 101.69,37 96.85,27.16 89.74,19.38 82.63,11.6 73.26,5.88 62.74,3.81 45.01,0.32 24.01,7.23 5.08,32.21 l 8.49,3.7 c 0.09,0.03 0.17,0.07 0.26,0.12 0.02,0.01 0.04,0.03 0.06,0.04 5.21,1.91 12.25,-0.24 18.99,-2.29 4.84,-1.47 9.53,-2.9 13.59,-2.88 0.19,-0.01 0.38,0.01 0.57,0.07 0.78,0.26 1.2,1.09 0.94,1.87 -2.23,6.77 -1.98,11.78 -0.07,15.67 1.92,3.93 5.58,6.84 10.13,9.32 z m -32.16,2.7 c -1.45,0 -2.62,1.17 -2.62,2.62 0,1.45 1.17,2.62 2.62,2.62 1.45,0 2.62,-1.17 2.62,-2.62 0,-1.45 -1.17,-2.62 -2.62,-2.62 z m 42.45,5.81 c 0.15,0.8 -0.38,1.57 -1.19,1.72 -0.8,0.15 -1.57,-0.38 -1.72,-1.19 -0.21,-1.13 -0.14,-2.21 0.13,-3.19 0.39,-1.38 1.2,-2.57 2.26,-3.47 1.04,-0.88 2.33,-1.49 3.71,-1.74 1.15,-0.21 2.37,-0.17 3.55,0.16 3.2,0.9 4.56,2.51 4.85,4.55 0.26,1.82 -0.46,3.81 -1.46,5.9 -0.89,1.87 -4.31,9.02 -7.69,13.37 -4.53,5.85 -8.94,7.96 -9.62,-4.51 -0.04,-0.81 0.59,-1.51 1.4,-1.55 0.81,-0.04 1.51,0.59 1.55,1.4 0.34,6.22 2.31,5.46 4.33,2.85 3.18,-4.1 6.49,-11.01 7.35,-12.83 0.78,-1.65 1.36,-3.14 1.21,-4.24 -0.12,-0.86 -0.88,-1.59 -2.72,-2.11 -0.74,-0.21 -1.51,-0.23 -2.22,-0.1 -0.87,0.16 -1.68,0.54 -2.33,1.1 -0.63,0.53 -1.1,1.22 -1.33,2.02 -0.15,0.57 -0.18,1.2 -0.06,1.86 z M 33.31,57.45 c 0.72,0.38 1,1.27 0.62,1.99 -0.38,0.72 -1.27,1 -1.99,0.62 -1.84,-0.96 -3.67,-1.53 -5.48,-1.57 h -0.01 c -1.78,-0.04 -3.57,0.43 -5.4,1.53 -0.7,0.42 -1.61,0.2 -2.03,-0.5 -0.42,-0.7 -0.2,-1.61 0.5,-2.03 2.33,-1.4 4.66,-2 6.99,-1.95 h 0.01 c 2.31,0.06 4.56,0.75 6.79,1.91 z"
     id="path1"
     style="fill:#ffffff;fill-opacity:1;stroke:none;stroke-opacity:1" /></svg>
